<svg width="188" height="31" viewBox="0 0 188 31" fill="none" xmlns="http://www.w3.org/2000/svg">
<path d="M77.8773 6.55961H75.5299C75.487 6.24978 75.3995 5.9746 75.2673 5.73406C75.1351 5.48966 74.9654 5.28221 74.7582 5.11094C74.5509 4.93929 74.3116 4.80843 74.04 4.71722C73.772 4.626 73.4809 4.58058 73.1664 4.58058C72.5983 4.58058 72.1035 4.72453 71.6819 5.01242C71.2603 5.29645 70.9334 5.71211 70.7011 6.25864C70.4689 6.80169 70.3528 7.46137 70.3528 8.23805C70.3528 9.03589 70.4689 9.70673 70.7011 10.2498C70.9369 10.7928 71.2656 11.2027 71.6873 11.4798C72.1088 11.757 72.5965 11.8951 73.1503 11.8951C73.4612 11.8951 73.7488 11.8532 74.0132 11.7697C74.2812 11.6858 74.5188 11.5637 74.726 11.4033C74.9332 11.2393 75.1047 11.0407 75.2405 10.8075C75.3798 10.5742 75.4763 10.3079 75.5299 10.0092L77.8773 10.02C77.8166 10.5338 77.6647 11.0295 77.4217 11.5072C77.1824 11.981 76.859 12.4055 76.4517 12.7811C76.048 13.1525 75.5656 13.4477 75.0047 13.6667C74.4473 13.8815 73.8167 13.9892 73.1128 13.9892C72.1339 13.9892 71.2585 13.7633 70.4867 13.3111C69.7186 12.8592 69.1112 12.2049 68.6646 11.3486C68.2215 10.4923 68 9.45502 68 8.23805C68 7.01684 68.2251 5.97807 68.6753 5.12172C69.1255 4.26537 69.7364 3.61262 70.5082 3.16463C71.2799 2.7124 72.1482 2.48648 73.1128 2.48648C73.7488 2.48648 74.3383 2.5777 74.8814 2.76013C75.4281 2.94217 75.9122 3.20812 76.3338 3.55797C76.7554 3.90436 77.0984 4.32888 77.3628 4.83191C77.6308 5.33494 77.8023 5.91071 77.8773 6.55961ZM81.7816 2.63966V13.836H79.4985V2.63966H81.7816ZM87.3299 14C86.4974 14 85.7775 13.8195 85.1701 13.4589C84.5662 13.0944 84.1 12.5879 83.7713 11.939C83.4426 11.2866 83.2782 10.5304 83.2782 9.67016C83.2782 8.80266 83.4426 8.04484 83.7713 7.39594C84.1 6.74358 84.5662 6.23708 85.1701 5.87607C85.7775 5.51159 86.4974 5.32955 87.3299 5.32955C88.1624 5.32955 88.8805 5.51159 89.4843 5.87607C90.0918 6.23708 90.5598 6.74358 90.8885 7.39594C91.2172 8.04484 91.3816 8.80266 91.3816 9.67016C91.3816 10.5304 91.2172 11.2866 90.8885 11.939C90.5598 12.5879 90.0918 13.0944 89.4843 13.4589C88.8805 13.8195 88.1624 14 87.3299 14ZM87.3406 12.1961C87.7193 12.1961 88.0356 12.0868 88.2892 11.8678C88.5429 11.6457 88.734 11.3432 88.8627 10.9603C88.9949 10.5777 89.061 10.142 89.061 9.654C89.061 9.1656 88.9949 8.72992 88.8627 8.34735C88.734 7.9644 88.5429 7.66189 88.2892 7.43982C88.0356 7.21736 87.7193 7.10613 87.3406 7.10613C86.9583 7.10613 86.6368 7.21736 86.3759 7.43982C86.1187 7.66189 85.924 7.9644 85.7918 8.34735C85.6631 8.72992 85.5988 9.1656 85.5988 9.654C85.5988 10.142 85.6631 10.5777 85.7918 10.9603C85.924 11.3432 86.1187 11.6457 86.3759 11.8678C86.6368 12.0868 86.9583 12.1961 87.3406 12.1961ZM98.1451 10.2606V5.43886H100.428V13.836H98.2362V12.3108H98.1505C97.9646 12.8027 97.6556 13.1983 97.2233 13.497C96.7945 13.796 96.2711 13.9453 95.653 13.9453C95.1027 13.9453 94.6186 13.818 94.2006 13.5628C93.7826 13.3076 93.4556 12.9451 93.2198 12.4747C92.9876 12.0044 92.8697 11.4414 92.8661 10.7855V5.43886H95.1492V10.3699C95.1528 10.8656 95.2832 11.2574 95.5404 11.5453C95.7977 11.8332 96.1425 11.9771 96.5748 11.9771C96.8499 11.9771 97.1071 11.9136 97.3465 11.7858C97.5859 11.6546 97.7789 11.4614 97.9254 11.2066C98.0754 10.9514 98.1486 10.6362 98.1451 10.2606ZM105.288 13.9727C104.663 13.9727 104.096 13.8087 103.589 13.4808C103.085 13.149 102.685 12.6626 102.388 12.021C102.095 11.3759 101.949 10.585 101.949 9.64823C101.949 8.68604 102.101 7.88627 102.404 7.24854C102.708 6.60695 103.112 6.12778 103.616 5.81064C104.123 5.48966 104.679 5.32955 105.282 5.32955C105.743 5.32955 106.128 5.4096 106.435 5.5701C106.746 5.72674 106.996 5.92341 107.185 6.1605C107.378 6.39373 107.524 6.62311 107.624 6.84942H107.694V2.63966H109.972V13.836H107.721V12.4913H107.624C107.517 12.7245 107.365 12.9558 107.169 13.1856C106.976 13.4115 106.724 13.599 106.413 13.7487C106.106 13.898 105.731 13.9727 105.288 13.9727ZM106.011 12.1195C106.379 12.1195 106.69 12.0175 106.944 11.8131C107.201 11.6057 107.398 11.3159 107.533 10.9441C107.673 10.5723 107.742 10.1366 107.742 9.63745C107.742 9.13827 107.675 8.70452 107.539 8.33619C107.403 7.96825 107.206 7.68383 106.949 7.48331C106.692 7.28279 106.379 7.18272 106.011 7.18272C105.636 7.18272 105.32 7.28664 105.063 7.49447C104.805 7.70192 104.611 7.99019 104.479 8.35813C104.346 8.72607 104.28 9.15251 104.28 9.63745C104.28 10.1259 104.346 10.5577 104.479 10.9329C104.614 11.3047 104.809 11.5965 105.063 11.8078C105.32 12.0156 105.636 12.1195 106.011 12.1195ZM115.385 13.836V2.63966H122.781V4.59136H117.705V7.25931H122.4V9.21101H117.705V11.8843H122.802V13.836H115.385ZM127.616 13.9727C126.991 13.9727 126.425 13.8087 125.917 13.4808C125.414 13.149 125.013 12.6626 124.717 12.021C124.424 11.3759 124.277 10.585 124.277 9.64823C124.277 8.68604 124.429 7.88627 124.733 7.24854C125.037 6.60695 125.44 6.12778 125.944 5.81064C126.452 5.48966 127.007 5.32955 127.611 5.32955C128.072 5.32955 128.456 5.4096 128.763 5.5701C129.074 5.72674 129.324 5.92341 129.513 6.1605C129.707 6.39373 129.853 6.62311 129.953 6.84942H130.023V2.63966H132.3V13.836H130.049V12.4913H129.953C129.846 12.7245 129.694 12.9558 129.497 13.1856C129.304 13.4115 129.053 13.599 128.742 13.7487C128.434 13.898 128.059 13.9727 127.616 13.9727ZM128.34 12.1195C128.708 12.1195 129.019 12.0175 129.272 11.8131C129.53 11.6057 129.726 11.3159 129.862 10.9441C130.001 10.5723 130.071 10.1366 130.071 9.63745C130.071 9.13827 130.003 8.70452 129.867 8.33619C129.731 7.96825 129.535 7.68383 129.278 7.48331C129.02 7.28279 128.708 7.18272 128.34 7.18272C127.965 7.18272 127.648 7.28664 127.391 7.49447C127.134 7.70192 126.939 7.99019 126.807 8.35813C126.675 8.72607 126.609 9.15251 126.609 9.63745C126.609 10.1259 126.675 10.5577 126.807 10.9329C126.943 11.3047 127.137 11.5965 127.391 11.8078C127.648 12.0156 127.965 12.1195 128.34 12.1195ZM139.456 10.2606V5.43886H141.739V13.836H139.548V12.3108H139.462C139.276 12.8027 138.967 13.1983 138.535 13.497C138.106 13.796 137.582 13.9453 136.964 13.9453C136.414 13.9453 135.93 13.818 135.512 13.5628C135.094 13.3076 134.767 12.9451 134.531 12.4747C134.299 12.0044 134.181 11.4414 134.178 10.7855V5.43886H136.461V10.3699C136.464 10.8656 136.594 11.2574 136.852 11.5453C137.109 11.8332 137.454 11.9771 137.886 11.9771C138.161 11.9771 138.418 11.9136 138.658 11.7858C138.897 11.6546 139.09 11.4614 139.237 11.2066C139.387 10.9514 139.46 10.6362 139.456 10.2606ZM147.285 14C146.442 14 145.716 13.818 145.109 13.4535C144.505 13.0852 144.041 12.5748 143.716 11.9225C143.394 11.2701 143.233 10.5196 143.233 9.67016C143.233 8.80997 143.396 8.05562 143.721 7.40672C144.05 6.75436 144.516 6.24594 145.12 5.88146C145.724 5.51352 146.442 5.32955 147.274 5.32955C147.993 5.32955 148.621 5.46233 149.161 5.72866C149.7 5.99461 150.127 6.36833 150.442 6.84942C150.756 7.33051 150.93 7.89512 150.962 8.54402H148.807C148.747 8.12489 148.586 7.78774 148.325 7.53257C148.067 7.27393 147.73 7.14462 147.312 7.14462C146.958 7.14462 146.649 7.24276 146.385 7.43982C146.124 7.63302 145.92 7.91514 145.774 8.28693C145.627 8.65872 145.554 9.10902 145.554 9.63745C145.554 10.1732 145.626 10.6289 145.769 11.0041C145.915 11.3794 146.12 11.6657 146.385 11.8624C146.649 12.0595 146.958 12.1576 147.312 12.1576C147.573 12.1576 147.807 12.103 148.014 11.9937C148.225 11.8843 148.398 11.7258 148.534 11.5179C148.673 11.3067 148.764 11.0534 148.807 10.7582H150.962C150.926 11.3998 150.755 11.9644 150.447 12.4528C150.143 12.9378 149.724 13.3168 149.188 13.5901C148.652 13.8634 148.018 14 147.285 14ZM154.771 13.9946C154.246 13.9946 153.777 13.9015 153.367 13.716C152.956 13.5262 152.63 13.2476 152.391 12.8793C152.155 12.5075 152.037 12.0448 152.037 11.4906C152.037 11.0242 152.121 10.6324 152.289 10.3152C152.457 9.99808 152.686 9.74329 152.975 9.55008C153.265 9.35688 153.593 9.21101 153.962 9.11248C154.333 9.01434 154.723 8.94506 155.13 8.90504C155.608 8.85385 155.994 8.8065 156.288 8.76263C156.58 8.71529 156.793 8.64601 156.925 8.5548C157.057 8.46397 157.124 8.32888 157.124 8.1503V8.11758C157.124 7.77119 157.016 7.50332 156.802 7.31396C156.591 7.12461 156.291 7.02954 155.902 7.02954C155.491 7.02954 155.164 7.12268 154.921 7.30857C154.678 7.49062 154.517 7.72039 154.438 7.9975L152.327 7.82238C152.434 7.31204 152.645 6.87097 152.959 6.49957C153.274 6.12393 153.679 5.83604 154.176 5.63552C154.676 5.43154 155.255 5.32955 155.912 5.32955C156.369 5.32955 156.807 5.38421 157.225 5.49351C157.647 5.60281 158.02 5.77216 158.345 6.00193C158.674 6.23131 158.933 6.5269 159.123 6.88752C159.312 7.24469 159.407 7.67305 159.407 8.17223V13.836H157.241V12.6714H157.177C157.045 12.9339 156.868 13.1656 156.646 13.3657C156.425 13.5628 156.159 13.7175 155.848 13.8307C155.537 13.94 155.178 13.9946 154.771 13.9946ZM155.425 12.3874C155.761 12.3874 156.057 12.32 156.314 12.1849C156.571 12.0464 156.774 11.8605 156.92 11.6273C157.066 11.394 157.14 11.13 157.14 10.8348V9.94343C157.068 9.99077 156.97 10.0346 156.845 10.0747C156.723 10.1112 156.586 10.1459 156.432 10.1786C156.279 10.2078 156.125 10.2352 155.971 10.2606C155.818 10.2825 155.678 10.3025 155.553 10.3206C155.285 10.361 155.051 10.4245 154.851 10.5123C154.651 10.5996 154.496 10.7182 154.385 10.8675C154.274 11.0134 154.219 11.1954 154.219 11.414C154.219 11.7312 154.331 11.9736 154.557 12.1414C154.785 12.3054 155.075 12.3874 155.425 12.3874ZM165.556 5.43886V7.18811H160.599V5.43886H165.556ZM161.725 3.42712H164.008V11.2555C164.008 11.4706 164.04 11.6384 164.104 11.7585C164.168 11.8751 164.258 11.9571 164.372 12.0044C164.49 12.0522 164.626 12.0756 164.78 12.0756C164.887 12.0756 164.994 12.0664 165.101 12.0483C165.208 12.0264 165.29 12.0102 165.347 11.999L165.707 13.7321C165.592 13.7687 165.431 13.8106 165.224 13.858C165.017 13.9088 164.765 13.94 164.469 13.9507C163.919 13.9727 163.436 13.898 163.022 13.7267C162.611 13.5555 162.291 13.2895 162.062 12.9285C161.834 12.5679 161.721 12.1122 161.725 11.5618V3.42712ZM167.044 13.836V5.43886H169.327V13.836H167.044ZM168.191 4.3562C167.851 4.3562 167.56 4.24151 167.317 4.01174C167.078 3.77851 166.958 3.49986 166.958 3.17541C166.958 2.85481 167.078 2.57963 167.317 2.34986C167.56 2.11662 167.851 2 168.191 2C168.53 2 168.82 2.11662 169.059 2.34986C169.302 2.57963 169.423 2.85481 169.423 3.17541C169.423 3.49986 169.302 3.77851 169.059 4.01174C168.82 4.24151 168.53 4.3562 168.191 4.3562ZM174.875 14C174.043 14 173.323 13.8195 172.715 13.4589C172.112 13.0944 171.645 12.5879 171.317 11.939C170.988 11.2866 170.823 10.5304 170.823 9.67016C170.823 8.80266 170.988 8.04484 171.317 7.39594C171.645 6.74358 172.112 6.23708 172.715 5.87607C173.323 5.51159 174.043 5.32955 174.875 5.32955C175.708 5.32955 176.426 5.51159 177.03 5.87607C177.637 6.23708 178.105 6.74358 178.434 7.39594C178.763 8.04484 178.927 8.80266 178.927 9.67016C178.927 10.5304 178.763 11.2866 178.434 11.939C178.105 12.5879 177.637 13.0944 177.03 13.4589C176.426 13.8195 175.708 14 174.875 14ZM174.886 12.1961C175.265 12.1961 175.581 12.0868 175.834 11.8678C176.088 11.6457 176.279 11.3432 176.408 10.9603C176.54 10.5777 176.606 10.142 176.606 9.654C176.606 9.1656 176.54 8.72992 176.408 8.34735C176.279 7.9644 176.088 7.66189 175.834 7.43982C175.581 7.21736 175.265 7.10613 174.886 7.10613C174.504 7.10613 174.182 7.21736 173.921 7.43982C173.664 7.66189 173.469 7.9644 173.337 8.34735C173.208 8.72992 173.144 9.1656 173.144 9.654C173.144 10.142 173.208 10.5777 173.337 10.9603C173.469 11.3432 173.664 11.6457 173.921 11.8678C174.182 12.0868 174.504 12.1961 174.886 12.1961ZM182.694 8.98124V13.836H180.411V5.43886H182.587V6.92024H182.684C182.866 6.43183 183.171 6.0458 183.6 5.76138C184.029 5.4735 184.549 5.32955 185.16 5.32955C185.731 5.32955 186.23 5.45694 186.655 5.71212C187.08 5.96729 187.411 6.33176 187.646 6.80555C187.882 7.27586 188 7.83701 188 8.48937V13.836H185.717V8.90504C185.721 8.39084 185.592 7.99019 185.331 7.70192C185.07 7.41057 184.711 7.2647 184.254 7.2647C183.947 7.2647 183.675 7.33205 183.439 7.46714C183.207 7.60185 183.025 7.79852 182.893 8.05754C182.764 8.31271 182.698 8.62061 182.694 8.98124Z" fill="white"/>
<path d="M70.7463 27.9961C70.1767 27.9961 69.6871 27.8914 69.2775 27.6819C68.868 27.4725 68.552 27.1901 68.3296 26.8348C68.1098 26.4768 68 26.073 68 25.6242C68 25.2852 68.0678 24.985 68.2034 24.7232C68.3418 24.4614 68.5316 24.2189 68.773 23.9959C69.0171 23.7729 69.2992 23.551 69.6193 23.3307L71.0962 22.3102C71.3132 22.1667 71.4773 22.0154 71.5885 21.8556C71.7024 21.6958 71.7593 21.5084 71.7593 21.2935C71.7593 21.1116 71.6834 20.9394 71.5315 20.7769C71.3823 20.6144 71.1762 20.5333 70.9131 20.5333C70.7368 20.5333 70.5808 20.576 70.4452 20.6613C70.3123 20.7439 70.2079 20.8525 70.1319 20.9875C70.0587 21.1225 70.0221 21.266 70.0221 21.4173C70.0221 21.6019 70.0722 21.7893 70.1726 21.9793C70.2757 22.1694 70.4086 22.3664 70.5713 22.5704C70.7368 22.7741 70.9131 22.9905 71.1002 23.219L75.0101 27.872H73.4153L70.1685 24.0952C69.9271 23.8086 69.6939 23.5262 69.4687 23.2481C69.2463 22.97 69.0632 22.6806 68.9195 22.3804C68.7784 22.0771 68.7079 21.7493 68.7079 21.3967C68.7079 20.9972 68.7988 20.6407 68.9805 20.3266C69.1622 20.0097 69.4159 19.7602 69.7413 19.5787C70.0695 19.3968 70.4533 19.3056 70.8927 19.3056C71.3321 19.3056 71.7091 19.3941 72.0238 19.5702C72.3384 19.7467 72.5812 19.981 72.7521 20.2726C72.9229 20.5647 73.0084 20.8832 73.0084 21.2272C73.0084 21.6267 72.9107 21.9847 72.7155 22.3016C72.5202 22.6158 72.2489 22.9009 71.9017 23.1569L70.2174 24.409C69.9407 24.613 69.7427 24.8198 69.6233 25.0288C69.504 25.2356 69.4443 25.4121 69.4443 25.5579C69.4443 25.7809 69.4999 25.9834 69.6111 26.1653C69.7224 26.3472 69.8783 26.4931 70.079 26.6032C70.2824 26.7107 70.5198 26.7646 70.791 26.7646C71.0894 26.7646 71.3837 26.6971 71.6739 26.5621C71.9641 26.4244 72.2286 26.2285 72.4673 25.9753C72.7059 25.722 72.8958 25.4187 73.0369 25.0661C73.1779 24.7108 73.2484 24.3171 73.2484 23.8842H74.5138C74.5138 24.4187 74.4554 24.8845 74.3388 25.281C74.2222 25.675 74.0716 26.0082 73.8872 26.2809C73.7027 26.5509 73.5074 26.7673 73.3013 26.9298C73.2362 26.9768 73.1739 27.0233 73.1142 27.0703C73.0545 27.1172 72.9921 27.1641 72.927 27.2107C72.6341 27.4806 72.291 27.6792 71.8977 27.8061C71.5071 27.9325 71.1233 27.9961 70.7463 27.9961ZM84.9162 19.4092L87.0847 26.0703H87.1701L89.3346 19.4092H90.9946L88.0571 27.872H86.1937L83.2603 19.4092H84.9162ZM94.5475 27.872V21.5247H96.0203V27.872H94.5475ZM95.288 20.6241C95.0547 20.6241 94.854 20.5457 94.6858 20.3886C94.5177 20.2288 94.4336 20.0372 94.4336 19.8142C94.4336 19.588 94.5177 19.3968 94.6858 19.2397C94.854 19.0799 95.0547 19 95.288 19C95.524 19 95.7247 19.0799 95.8901 19.2397C96.0583 19.3968 96.1424 19.588 96.1424 19.8142C96.1424 20.0372 96.0583 20.2288 95.8901 20.3886C95.7247 20.5457 95.524 20.6241 95.288 20.6241ZM104.995 23.2027L103.652 23.3513C103.614 23.2136 103.548 23.084 103.453 22.963C103.36 22.8416 103.236 22.7438 103.078 22.6694C102.921 22.5953 102.728 22.558 102.501 22.558C102.194 22.558 101.936 22.6255 101.728 22.7605C101.521 22.8955 101.42 23.0704 101.422 23.2853C101.42 23.4699 101.486 23.6201 101.622 23.7356C101.76 23.8512 101.988 23.9463 102.305 24.0207L103.371 24.2523C103.963 24.3815 104.402 24.587 104.689 24.8679C104.98 25.1487 105.126 25.5168 105.129 25.971C105.126 26.3705 105.011 26.7231 104.783 27.0291C104.558 27.3321 104.245 27.5691 103.843 27.7397C103.442 27.9104 102.981 27.9961 102.46 27.9961C101.695 27.9961 101.079 27.8336 100.613 27.5082C100.146 27.1804 99.8682 26.7247 99.7787 26.1405L101.215 26.0001C101.28 26.2867 101.418 26.5028 101.63 26.649C101.841 26.7949 102.117 26.8678 102.456 26.8678C102.806 26.8678 103.086 26.7949 103.298 26.649C103.512 26.5028 103.619 26.3224 103.619 26.1075C103.619 25.9256 103.55 25.7755 103.412 25.6572C103.276 25.5385 103.065 25.4477 102.777 25.3845L101.711 25.1572C101.112 25.0304 100.668 24.8171 100.381 24.5164C100.093 24.2135 99.9509 23.8307 99.9537 23.3679C99.9509 22.9766 100.055 22.6379 100.267 22.3513C100.481 22.0619 100.778 21.8389 101.158 21.6818C101.54 21.522 101.981 21.4421 102.48 21.4421C103.213 21.4421 103.789 21.6007 104.209 21.9173C104.633 22.2342 104.894 22.6628 104.995 23.2027ZM110.662 28C110.266 28 109.91 27.9286 109.592 27.7851C109.278 27.6393 109.028 27.4244 108.843 27.1405C108.662 26.8569 108.571 26.507 108.571 26.0909C108.571 25.7328 108.636 25.4369 108.766 25.2026C108.896 24.9683 109.074 24.781 109.299 24.6406C109.524 24.5002 109.778 24.3939 110.06 24.3225C110.345 24.248 110.639 24.1941 110.943 24.1612C111.309 24.1228 111.606 24.0882 111.834 24.058C112.062 24.025 112.227 23.9753 112.33 23.909C112.436 23.8404 112.489 23.7341 112.489 23.591V23.5661C112.489 23.2551 112.398 23.0138 112.216 22.8431C112.035 22.6721 111.773 22.5867 111.431 22.5867C111.07 22.5867 110.784 22.6666 110.573 22.8264C110.364 22.9863 110.223 23.1752 110.149 23.3928L108.774 23.1942C108.883 22.8086 109.062 22.4863 109.311 22.2272C109.561 21.9657 109.866 21.7699 110.227 21.6407C110.588 21.5084 110.986 21.4421 111.423 21.4421C111.724 21.4421 112.024 21.4782 112.322 21.5495C112.62 21.6213 112.893 21.7396 113.14 21.9048C113.387 22.0678 113.585 22.2892 113.734 22.5704C113.886 22.8513 113.962 23.2027 113.962 23.6239V27.872H112.546V27.0001H112.497C112.408 27.1765 112.281 27.3418 112.119 27.4962C111.959 27.6474 111.757 27.77 111.513 27.8639C111.271 27.9546 110.988 28 110.662 28ZM111.045 26.9008C111.34 26.9008 111.597 26.8418 111.813 26.7231C112.031 26.6021 112.197 26.4423 112.314 26.2441C112.433 26.0455 112.493 25.8294 112.493 25.5951V24.8473C112.447 24.8857 112.368 24.9214 112.257 24.9548C112.148 24.9877 112.027 25.0164 111.891 25.0412C111.755 25.0661 111.621 25.0882 111.488 25.1076C111.355 25.127 111.24 25.1433 111.142 25.1572C110.922 25.1875 110.726 25.2371 110.552 25.3058C110.379 25.3748 110.242 25.471 110.141 25.5951C110.041 25.7162 109.991 25.8733 109.991 26.066C109.991 26.3418 110.09 26.5497 110.288 26.6901C110.486 26.8305 110.738 26.9008 111.045 26.9008ZM127.919 21.7357C127.881 21.3746 127.721 21.0938 127.439 20.8925C127.16 20.6915 126.796 20.5911 126.349 20.5911C126.034 20.5911 125.764 20.6392 125.539 20.7358C125.314 20.832 125.142 20.9627 125.022 21.1283C124.903 21.2935 124.842 21.4821 124.839 21.6942C124.839 21.8707 124.879 22.0235 124.957 22.1531C125.039 22.2822 125.148 22.3928 125.287 22.4836C125.425 22.5716 125.578 22.6461 125.746 22.7066C125.915 22.7671 126.084 22.8183 126.255 22.8594L127.036 23.058C127.351 23.1325 127.653 23.2329 127.943 23.3594C128.236 23.4862 128.498 23.646 128.729 23.8388C128.962 24.0316 129.146 24.2647 129.282 24.5374C129.418 24.8101 129.486 25.1297 129.486 25.4958C129.486 25.9919 129.361 26.4283 129.111 26.8057C128.861 27.1804 128.501 27.474 128.029 27.6862C127.56 27.8953 126.991 28 126.324 28C125.676 28 125.113 27.898 124.636 27.6944C124.161 27.4903 123.789 27.1928 123.521 26.8018C123.255 26.4105 123.111 25.9341 123.09 25.3721H124.575C124.596 25.6669 124.686 25.912 124.843 26.1075C125 26.303 125.205 26.4493 125.458 26.5454C125.713 26.642 125.997 26.6901 126.312 26.6901C126.64 26.6901 126.928 26.6405 127.175 26.5416C127.424 26.4396 127.619 26.2991 127.76 26.1199C127.901 25.938 127.973 25.7259 127.976 25.4834C127.973 25.2631 127.909 25.0812 127.785 24.9381C127.66 24.7922 127.485 24.6708 127.26 24.5746C127.038 24.4753 126.777 24.3873 126.479 24.3101L125.531 24.0622C124.845 23.883 124.302 23.6115 123.903 23.2481C123.507 22.8815 123.309 22.3955 123.309 21.7893C123.309 21.2908 123.442 20.8541 123.708 20.4794C123.977 20.1047 124.341 19.8142 124.803 19.6074C125.264 19.398 125.786 19.2936 126.369 19.2936C126.96 19.2936 127.478 19.398 127.923 19.6074C128.371 19.8142 128.722 20.102 128.977 20.4712C129.232 20.8374 129.363 21.259 129.372 21.7357H127.919ZM136.053 27.9961C135.427 27.9961 134.886 27.8639 134.43 27.5993C133.977 27.3321 133.628 26.9547 133.384 26.4671C133.14 25.9768 133.018 25.3997 133.018 24.7356C133.018 24.0828 133.14 23.5099 133.384 23.0165C133.631 22.5208 133.976 22.1352 134.418 21.8595C134.86 21.5813 135.379 21.4421 135.976 21.4421C136.361 21.4421 136.724 21.5057 137.066 21.6322C137.411 21.7563 137.714 21.9491 137.977 22.2109C138.243 22.4727 138.452 22.8059 138.604 23.2108C138.756 23.6131 138.832 24.0925 138.832 24.6487V25.1076H133.71V24.0991H137.42C137.418 23.8128 137.356 23.558 137.237 23.335C137.118 23.1088 136.951 22.9312 136.737 22.8016C136.525 22.6721 136.278 22.6077 135.996 22.6077C135.695 22.6077 135.431 22.6818 135.203 22.8307C134.975 22.9766 134.797 23.1693 134.67 23.409C134.545 23.646 134.482 23.9063 134.478 24.1902V25.0703C134.478 25.4396 134.545 25.7561 134.678 26.0206C134.811 26.2825 134.997 26.4834 135.235 26.6242C135.474 26.7619 135.754 26.8305 136.074 26.8305C136.288 26.8305 136.482 26.8003 136.655 26.7398C136.829 26.6766 136.98 26.5842 137.107 26.4628C137.234 26.3418 137.331 26.1917 137.396 26.0125L138.771 26.1696C138.684 26.5385 138.519 26.8608 138.275 27.1366C138.033 27.4093 137.724 27.6214 137.347 27.7727C136.97 27.9216 136.539 27.9961 136.053 27.9961ZM142.598 27.872V21.5247H144.027V22.5829H144.092C144.206 22.2163 144.401 21.9339 144.678 21.7357C144.957 21.5344 145.276 21.434 145.634 21.434C145.715 21.434 145.806 21.4382 145.906 21.4464C146.009 21.4518 146.095 21.4615 146.163 21.4755V22.8513C146.1 22.8292 146.001 22.8102 145.866 22.7935C145.733 22.7741 145.604 22.7644 145.479 22.7644C145.211 22.7644 144.969 22.8237 144.755 22.942C144.543 23.058 144.377 23.219 144.254 23.4257C144.133 23.6325 144.071 23.8706 144.071 24.1406V27.872H142.598ZM155.434 21.5247L153.208 27.872H151.581L149.355 21.5247H150.926L152.362 26.2398H152.427L153.868 21.5247H155.434ZM158.974 27.872V21.5247H160.446V27.872H158.974ZM159.714 20.6241C159.481 20.6241 159.28 20.5457 159.112 20.3886C158.944 20.2288 158.86 20.0372 158.86 19.8142C158.86 19.588 158.944 19.3968 159.112 19.2397C159.28 19.0799 159.481 19 159.714 19C159.95 19 160.151 19.0799 160.316 19.2397C160.484 19.3968 160.568 19.588 160.568 19.8142C160.568 20.0372 160.484 20.2288 160.316 20.3886C160.151 20.5457 159.95 20.6241 159.714 20.6241ZM167.207 27.9961C166.583 27.9961 166.048 27.8569 165.6 27.5788C165.155 27.3003 164.812 26.9163 164.571 26.4256C164.332 25.9326 164.213 25.3651 164.213 24.7232C164.213 24.0785 164.335 23.5099 164.579 23.0165C164.823 22.5208 165.168 22.1352 165.613 21.8595C166.06 21.5813 166.589 21.4421 167.199 21.4421C167.707 21.4421 168.155 21.5371 168.546 21.7272C168.939 21.9145 169.252 22.1806 169.486 22.5247C169.719 22.8664 169.852 23.2659 169.885 23.7232H168.477C168.42 23.4176 168.284 23.1627 168.07 22.9587C167.859 22.752 167.575 22.6488 167.22 22.6488C166.919 22.6488 166.654 22.7314 166.426 22.8967C166.198 23.0592 166.021 23.2935 165.893 23.5991C165.768 23.9051 165.706 24.2713 165.706 24.6984C165.706 25.1308 165.768 25.5028 165.893 25.8143C166.018 26.1227 166.193 26.3608 166.418 26.5292C166.646 26.6944 166.913 26.777 167.22 26.777C167.437 26.777 167.631 26.7355 167.801 26.6529C167.975 26.5676 168.12 26.445 168.237 26.2852C168.353 26.1254 168.433 25.9311 168.477 25.7026H169.885C169.849 26.1518 169.719 26.5497 169.494 26.8969C169.269 27.2413 168.962 27.5113 168.575 27.7068C168.187 27.8995 167.731 27.9961 167.207 27.9961ZM176.381 27.9961C175.754 27.9961 175.213 27.8639 174.758 27.5993C174.305 27.3321 173.956 26.9547 173.712 26.4671C173.468 25.9768 173.346 25.3997 173.346 24.7356C173.346 24.0828 173.468 23.5099 173.712 23.0165C173.959 22.5208 174.304 22.1352 174.745 21.8595C175.188 21.5813 175.707 21.4421 176.304 21.4421C176.689 21.4421 177.052 21.5057 177.394 21.6322C177.739 21.7563 178.042 21.9491 178.305 22.2109C178.571 22.4727 178.78 22.8059 178.932 23.2108C179.084 23.6131 179.16 24.0925 179.16 24.6487V25.1076H174.038V24.0991H177.748C177.745 23.8128 177.684 23.558 177.565 23.335C177.446 23.1088 177.279 22.9312 177.065 22.8016C176.853 22.6721 176.606 22.6077 176.324 22.6077C176.023 22.6077 175.759 22.6818 175.531 22.8307C175.303 22.9766 175.125 23.1693 174.998 23.409C174.873 23.646 174.809 23.9063 174.806 24.1902V25.0703C174.806 25.4396 174.873 25.7561 175.006 26.0206C175.139 26.2825 175.325 26.4834 175.563 26.6242C175.802 26.7619 176.081 26.8305 176.401 26.8305C176.616 26.8305 176.81 26.8003 176.983 26.7398C177.157 26.6766 177.307 26.5842 177.435 26.4628C177.562 26.3418 177.658 26.1917 177.724 26.0125L179.099 26.1696C179.012 26.5385 178.847 26.8608 178.603 27.1366C178.361 27.4093 178.052 27.6214 177.675 27.7727C177.298 27.9216 176.866 27.9961 176.381 27.9961ZM187.866 23.2027L186.523 23.3513C186.485 23.2136 186.419 23.084 186.323 22.963C186.231 22.8416 186.107 22.7438 185.949 22.6694C185.792 22.5953 185.599 22.558 185.372 22.558C185.065 22.558 184.807 22.6255 184.598 22.7605C184.393 22.8955 184.291 23.0704 184.293 23.2853C184.291 23.4699 184.357 23.6201 184.493 23.7356C184.631 23.8512 184.859 23.9463 185.176 24.0207L186.242 24.2523C186.834 24.3815 187.273 24.587 187.56 24.8679C187.851 25.1487 187.997 25.5168 188 25.971C187.997 26.3705 187.882 26.7231 187.654 27.0291C187.429 27.3321 187.116 27.5691 186.714 27.7397C186.313 27.9104 185.852 27.9961 185.331 27.9961C184.566 27.9961 183.95 27.8336 183.484 27.5082C183.017 27.1804 182.739 26.7247 182.65 26.1405L184.086 26.0001C184.151 26.2867 184.289 26.5028 184.501 26.649C184.713 26.7949 184.988 26.8678 185.327 26.8678C185.677 26.8678 185.958 26.7949 186.169 26.649C186.383 26.5028 186.49 26.3224 186.49 26.1075C186.49 25.9256 186.421 25.7755 186.283 25.6572C186.147 25.5385 185.936 25.4477 185.648 25.3845L184.582 25.1572C183.983 25.0304 183.539 24.8171 183.252 24.5164C182.964 24.2135 182.822 23.8307 182.825 23.3679C182.822 22.9766 182.926 22.6379 183.138 22.3513C183.352 22.0619 183.649 21.8389 184.029 21.6818C184.411 21.522 184.852 21.4421 185.351 21.4421C186.084 21.4421 186.66 21.6007 187.08 21.9173C187.504 22.2342 187.765 22.6628 187.866 23.2027Z" fill="white"/>
<path d="M40.8197 12.5787C39.5565 6.66212 33.9321 2.2998 27.1705 2.2998C21.8021 2.2998 17.1282 5.03315 14.7969 9.1524C9.2056 9.70278 4.97461 14.1081 4.97461 19.4313C4.97461 25.1329 9.91466 29.7102 16.0726 29.7102H40.1819C45.3088 29.7102 49.494 25.9506 49.494 21.2035C49.494 16.6629 45.64 12.8969 40.8197 12.5787ZM40.1819 26.2839H16.0726C11.9766 26.2839 8.67393 23.2237 8.67393 19.4313C8.67393 15.6388 11.9766 12.5787 16.0726 12.5787C20.1685 12.5787 23.4712 15.6388 23.4712 19.4313H27.1705C27.1705 14.6842 23.7155 10.7108 19.0065 9.50684C20.8734 7.19351 23.8268 5.7261 27.1705 5.7261C32.8083 5.7261 37.3755 9.95796 37.3755 15.178V16.005H40.1819C43.2562 16.005 45.7947 18.357 45.7947 21.2035C45.7947 24.05 43.2562 26.2839 40.1819 26.2839Z" fill="white"/>
<path d="M22.1959 11.6335C22.1955 11.6335 22.1964 11.6335 22.1959 11.6335C22.0385 11.6335 21.925 11.6484 21.8132 11.7517C21.7002 11.8561 21.6856 11.9581 21.6856 12.1061V20.3765C21.6856 20.6797 21.867 20.9664 22.1959 20.9672C23.5822 20.9703 25.9512 21.1868 27.5535 22.7395V14.1147C27.5535 14.0119 27.4795 13.9583 27.426 13.8784C26.1109 11.9174 23.5853 11.6365 22.1959 11.6335Z" fill="white"/>
<path d="M34.3151 20.3765V12.1061C34.3151 11.9581 34.1736 11.8561 34.0611 11.7517C33.9497 11.6484 33.8365 11.6335 33.6799 11.6335C33.6794 11.6335 33.6804 11.6335 33.6799 11.6335C32.2961 11.6366 29.7809 11.9174 28.471 13.8784C28.4176 13.9583 28.471 14.0119 28.471 14.1147V22.7395C30.0668 21.1868 32.2992 20.9705 33.6799 20.9672C34.0073 20.9666 34.3151 20.6797 34.3151 20.3765Z" fill="white"/>
<path d="M35.718 13.5239H35.3353V20.3679C35.3353 21.1411 34.6419 21.7819 33.8045 21.7839C32.6285 21.7864 30.713 21.9981 29.3398 23.1998C31.7147 22.6621 34.1637 23.0172 35.5904 23.3178C35.7686 23.3554 35.958 23.3052 36.1007 23.1998C36.2428 23.095 36.3558 22.8962 36.3558 22.7279V13.9959C36.3558 13.6923 36.0463 13.5239 35.718 13.5239Z" fill="white"/>
<path d="M20.6655 20.3678V13.5239H20.1553C19.8269 13.5239 19.6451 13.6923 19.6451 13.9959V22.7278C19.6451 22.8963 19.6305 23.0949 19.7726 23.1998C19.9153 23.305 20.1043 23.3555 20.2829 23.3178C21.7095 23.0172 24.286 22.6621 26.6606 23.1998C25.2876 21.998 23.2445 21.7864 22.0686 21.7838C21.2313 21.7819 20.6655 21.1411 20.6655 20.3678Z" fill="white"/>
<path fill-rule="evenodd" clip-rule="evenodd" d="M44.2649 6.3169L44.7751 7.85282H46.561L45.1578 8.79801L45.6681 10.3339L44.2649 9.38875L42.7341 10.3339L43.3719 8.79801L41.9688 7.85282H43.6271L44.2649 6.3169ZM48.9847 0.88208L49.3674 1.82727H50.643L49.6225 2.53615L50.0052 3.59949L48.9847 2.8906L48.0918 3.59949L48.4744 2.53615L47.4539 1.82727H48.602L48.9847 0.88208ZM44.2649 1.11838L44.6476 2.06356H45.6681L44.7751 2.6543L45.1578 3.71764L44.2649 3.12689L43.3719 3.71764L43.7546 2.6543L42.8617 2.06356H43.8822L44.2649 1.11838ZM50.5154 4.89912L50.8981 5.96245H52.0462L51.0257 6.67134L51.4084 7.73467L50.5154 7.02578L49.4949 7.73467L49.8776 6.67134L48.8571 5.96245H50.1328L50.5154 4.89912ZM48.2193 7.85282L48.4744 8.91615H49.6225L48.7296 9.5069L49.1123 10.4521L48.2193 9.86134L47.3264 10.4521L47.5815 9.5069L46.6886 8.91615H47.8366L48.2193 7.85282ZM46.8161 3.59949L46.3059 4.78097H44.9027L46.0508 5.48986L45.6681 6.78949L46.8161 5.96245L47.8366 6.78949L47.4539 5.48986L48.602 4.78097H47.1988L46.8161 3.59949Z" fill="white"/>
</svg>
